<mxfile host="65bd71144e" scale="2" border="0">
    <diagram id="yfvJXDMHZXFkylrhKVUv" name="Page-1">
        <mxGraphModel dx="622" dy="545" grid="1" gridSize="10" guides="1" tooltips="1" connect="1" arrows="1" fold="1" page="1" pageScale="1" pageWidth="1169" pageHeight="827" math="0" shadow="0">
            <root>
                <mxCell id="0"/>
                <mxCell id="1" parent="0"/>
                <mxCell id="2" value="" style="shape=image;verticalLabelPosition=bottom;labelBackgroundColor=#ffffff;verticalAlign=top;aspect=fixed;imageAspect=0;image=data:image/png,iVBORw0KGgoAAAANSUhEUgAAARUAAAEVCAIAAABBjOa1AAAAAXNSR0IArs4c6QAAAARnQU1BAACxjwv8YQUAAAAJcEhZcwAADsIAAA7CARUoSoAAADI0SURBVHhe7Z0JmBXFFbbnzj5ssosL7hBFjQu4QvDHGEGDC6iImmh8NBKNiJr8Ki4EI4LERBIX1ORXBEJcUVAExYAIiEQiomzhQQUNKCIiywwzMNv/Vn897QBzCdMzc/vemfM+PuXpqurqPqfPV1V9gXtjBds2pxmGEYrYtsItvmkYRjWJFRZt9U3DMKqJrT+GEZ50//+GYVQf049hhMf0YxjhMf0YRnhMP4YRHtOPYYTH9GMY4TH9GEZ4TD+GER7Tj2GEx/RjGOEx/RhGeEw/hhEe049hhMf0YxjhMf0YRnhMP4YRHtOPYYTH9GMY4TH9GEZ4TD+GER7Tj2GEx/RjGOEx/RhGeEw/hhGeWH7BJt80Ek56enpZWRlGLBajLCt1NVBSUhJLLwd1gKysLPU0korY0mUf+aaRWJAHZWZmphTCYUZ6Fsqh0mkow/XZvn17o0aNSktL6SCNGUlFbPOWb33TSCwZGRnFxcXIJjs7G53k5OSklbuVhyZWm22F+a6GRclTDt1MP0mI/f5PlLDMUKIQBLNjx46C/EIUxYq0zz77ZGTGsKUcoCelzjKSB/v9kihhY6YXm1haxpNPPjlmzJiCgoK8vLxDDz30nHPO+dnPfsZbEK25ublal4xkw36/JDJYW6SfoqKi1au+OO+887Zt29a8eXOkQj3lSSed9PAjf95///3Z3dFZi5WRVNgjiYxg29aoUaNNmzaxPWPbNmPGjKlTp7qVJxZ77733Jk+ejHh4U6Knf1pdUJ7u/jOqj0UtMlhPEA/aYLXp1KlT27ZtOXz33XcPPvjgoUOHXnPNNccff3z37t2RGT15F/JPM5IJ27/FRe/u5C75LUM1fnMlqKcM8X7PyAyLhEqKy6ZMmTJ48OAmTZoMGjSof//+mZmZtKbFyjDoiX7oqbP2EnaAWrXc+1XFHTIIIFTeuGiVLLkETeVppe40ozpk3HX3YN80doM8oyS9yEUltLJ5F5SdIcjNzZUwykrLWYIwFixYMGvWrP/85z/HHXdc48aNs3Oy2L/Rk1yvrj6RJQM6YVT67BuDK3obwmzeu3JycmhFYN4qZ5+PVxvbv+2JvLw8pSB55mWYm7n9tkp4KVrtxYdU1mjIkgthX3fddU8++WTHjh3nzJnz85///IMPPgjWEAzvpOohYWBwLYGdkZ7F287tt9/+k5/8ZO7cudQwKdTt+1X9xfQTF9Ja+Yc2mLMpyT9m7hBSqRKnufJybynIys/PZ7Vh/BNPPHHMmDGXXHLJl19+OXDgwI8++ijY4/mn7TW6eQzJRpcTS5YseeGFF1avXv3qq69qdVVPo7qYfuJCYpG1//3vf6dOnYpBEpNnlH5zjSGtGY33kLdnvtOrV6/x48dTmZ2d3axZs7vuuuvMM89cv379Q3/6c052nnsRqj6M718iFkMeyAaDemqQKMsdxtq1a6VPNRnVxT4/iAua4Q2BPP70009HjBhxzTXXoB+yUK01TzgldHoss2vXruvWraPmt7/97SGHHNKkSZOVK1c+/PDDGzZs4C3otddeKy1zbyw6q7pwCbfiVHxygPHZp6v79u3La9XWrVsPOOCAd955h90jrsXSa2ddbVCYfuJC5jFtd+nS5bvvvttvv/14vz/llFMuuOCCVq1aSTw1lJDG521k+PDho0ePZrlj8aEks8lyErpFixaPPvpot27dysrdy091L8cglJyFQYkCy8tizAgjR44cN27cj370ow8//JD6SZMmtW/fnlZdxagWtn+LizY2TZs2Jct5G2Gevvfee2+44QaalJqCFBT+cXVgfNRy9NFH5+bmIlS2beeff/4ZZ5xx1lln3X333ZMnT2ZpUvaHGN9bb9zGTOcyDuJhzeGdh8v179+fxQcfP/vsM8QTbotomH7iwspQVpr2g45HZWZk3/Z/73js0ccPP6zDxx8tWbhwIa3KS6SlEnTW3lNaUp5Wns6as2nTJlYblrgrfnbZ/cPve+rpvz3+xGO/vO6a9gcdkBYrS89wqa/9m7QkIyjj4d9baRpbxOIdpSw+OTk5iIfL/eAHP+jRo8fBBx+8bdu2pUuXus1bKP0bpp+4MCWTVY08Onfu3LNnz44dOzKj60NnJTQdNHPrsFqwVSPF0cDYsWMp9913X2rURELTxJiMTxO2/qBTV+cwKyvLW1329N6ve6MzsODQmfVnypQpXKVfv37o9phjjuFCCxYs4EIh7t8A009cyDNyjtma3MX+/PPPly9fTpYffvjh1JN59MEgO0k+Sp219zCCJMqbFW/wvXr1QioMRcmwSmgJgKsDNpWsIbSy6+OuOFdijocbJzNWnlZKZ3ouW7YMF3h/O/fccxntsMMOo8+aNWvQlfRpVBfTT1z0Ce+WLVtItRdffPH666/fuHEjM/f++++vZUHZTx86c6iz9h7WEMB49NFHyewTTjgBW7KkXqsHNgYl47Ni0KoOyInramHhsEqkQ/pTAmNOnToVnbRs2fLpp58eOXLka6+9hhrXr1/P1EAH/zSjOtjnb/Epd5/2XnDBBYsWLdKywGvDxIkT8xq5FYAarUt0JI+V5dVC33Yg4ZWVl0geqqEMdMIhQlI3DrkQTYiBmsLCQgTgxqoKOtCfWUCD0Ln3T8//5JNPaKKGExs3brxu3Tqu+5e//OX888+3z99CYLPO/4A3bFKWV6AmTZqsXbsW/ZDcynKSmMxGPByG2L9JclrEUKNWG43D4MCwqqGVdYakV6skRMmuT4NUie4KeVDChx9+yFaNQVq0aDFgwIC//vWv48ePP+ecc+iwdOnSPYxj7AHTT1xIKSZv3jTY8MydO3fMmDFt2rR55JFHyDZayUj1UaJTeidVA15LYunlOblZTPxIEUnozzFdk/cixLA6xGD1oJLsZ9HjELg3ri7VxYPTA31Onz6dC510cmd8ueOOO7p168ZyesYZZzAgu0d7/wmH6ScuKIQXa9hvv/145+7SpQt7OV6HmLZJSqZtMlgvKiQfh/5pew0aYBxSHEOq2Lp1KwudNEkHlVyC1lWrVj333HMshlwISVNPt6CsEokQgz4FBQUzZ87k8LLLLmvatKm0B4ceeijXXb58+ebN9jUYYTD9xIVs++abb8hvkowMJh3bt2/PIRshcpoFgdLbGbk90p7XgXiQuyRxYEsqshlWiw+3sXjx4t69e99+++0vvfSSpMtZdMCmp3d2FUh+9MT4+OOPN27cyPrGLMAh6xjnUh588MHsDL/99tslS5boLKNamH7iwmT/5ptvohPWnFmzZvGSPWzYMJajtm3bknzkIiUprj0Vtn9ajWEokh7ZICfkwdLB1VkxqGEZpANXZAnawydvQtJCLdzknDlzcOeoo45iCqAS7TEa9e3atWN3yuCrV6/2TjKqh+knLiQcWyYydd68eTfeeOPo0aMR0pFHHjlw4EDym3pSUDlKOpLrOqvmMCZJr7xPj2VmpGf9862ZaeXpvKvwuk896a5dHDfApf3TdkMrj+7t5ZdfZtju3bs7caaXp2e4e8bOyclh58ZcwBbOP82oDqafuDRv3rxHjx7k2UEHHXTiiSf26dPnvvvu+/vf/3766aeTl3RQgoJUVFswGsphWETC1dmzsThcdNFFY8aM4ZCLsv7Qiiq0Uvmn7QZNjINCJk+erI0oXgR3i/a0i+vcuTMlS5POMqqF6ScupBcladevX7/x48ePGjXq8ssvP/DAA5n4yULyj7TTEsQhma2zag7DMqb+0lp+fv4zzzzD+jBgwAA1cUWpi1KX1lm7o4832HByw3SmplOnTjjFjtQpp6x4R3ERlX/7299YYHHNO8moHqafuDB/o5Y2bdp07NgRm3QkfYFlQYlLpZRDTvvn1AaMSX4zLOXUqVPXrFlzySWXdOjQgSZqaNXV0Qaq2MOl6Uwr9O/f/7HHHnv99debNm3KKY0bN2ZryiDBn73uu+++tbj/bFDY3z+IT3k6KcjrAWmnvRB1pGNxiXvxAJKY2Z3MQ1Goiz46r4ZonJLiMl63Lr30UhafcePGtWrVqqTU/X0ivfxIP8iA24h3XS2JkiJwLmWgOiYCmvQSVVpSnpuby/g60dh7bP2JC9lWXFzcrFkzLTukLKmm5CNlaaIDUziHZGFtiQdcsntr2nPPPbd27Vp2Vi1atOASVHIVZEAfbgPpIiS66azdoTOt3DadJTkO9fk4NuPgFLKhm/Svs4xqEcH6w8Oj5LHJ0IN002Spa1Iiqol6Hi15g50W2+0FI7qvzOSWlMfcrW6eHNUvjuw9SmJ5p6UANTIOhwz71VdfsW1r167d2LFjWQC5iiJTJQzFCChKI7DI0D/C+FSLIIaUKFzTBKTE38eLOAX1pCmZ/zgESUhxZOtCNlCTVHBvukMtQdw8JYe+Y9VELmMwU0gkGm3SpEn5+fmDBg3idUXXVf8qoT/najFhQISkU1ICyQYDx3ncuMBUghe+b8lNBL8/p2dMsEAzNzXTpk17e+Y7hYWFCqJ0pbBWsfKIiOZXbkxPt1GjRn379u3WrZs2RRmZ1dvCaRDnYMW7igKC16tWrbryyis7dOjw5JNPuq6eunSV3VEwCRoncvjFF1889dRT3333Het5SkA8NXcQiiOOOOLqq69u06aNezGrZjwjIbZs+ce+mSiUfyDl8NR5/AMHDly75itmUEWTJiqVGXG/Fya6/QlZzoLJ3fbv3//ss8/m0OV3iftraXsPnuK7JguFAn81H0+YMIH1Z8SIEeQTg6sSwz9zZ1yIvDBio7GVK1eOGjVq48aN6bGq+ycbeM28STAJKcY999xz6qmn4mxK7N9iW/O/880EwiPX8yYtSA7siy66aNN3W5599lmiSRKQjhIPrcn5vUq6vSZNmvDKwU0GHu09clwRYDTApp4F5Kqrruratevw4cPVk8FppZsOdyGoJ+fQIYebN2+mDOqThTjzXeDaq6+++vDDD6OfCy+8kBkh7r4jmYjg9+c00fra8N4dKfv06bNlc/5bb71FkzZvVNLH9U8y/QT3zK1SBguI37zXSDwMQskIzL4EhFe+22+//Y033hg/fnynTp0UhOCK/pk7wzjqw+lSGjWMVl091zlx9CPxcNsTJ04cOnTokCFDLr74Yud4Snx+wI0mGFKBkClqHLJwM3FiaKOifMKgpqR0B5vgZIMcZXnk5lknuVugBvzmvYZTtFzIfWApW7x48ZtvvtmjR4+OHTvSwYXJg6uoz+6oG/cjDSMbbiwYM1VQALltyV7zRfITwSsEMSI6JISmbWZKpRFwQ8SRPrTSB2nRRE1SwU1KOTjCIfdJGWKy5ywEI4PXZQyGGjduHOUVV1wRbAulHGzvpKrh6gSKcNEZg8ByYqqg544XGAomXiTd4hmHCPRDmAiQgkWYnIgrfVjp/hSFpdv7t5kKJR2SCm6SUgnNHcoF796rB65xOgYlUuRw1apV7GDPOOOM4447Tr4DUaLPnvNJt4FysLkZTnE3mmyku1fZKv/jiQcl/7FzS5UfI4pAP4Yg40l0toLKfgT5zDPPsBqz+Eg2pByVEobkaiQbyaSfWFlKfORSW7AJRCFoA4UUFRV9/fXXs2bN6tKly8knn4yiaKIPKkJLEpLOMpIKW38iA1Vo2dG7/ssvv7xly5YBAwZowybNaCGim04xkg3TT2RoYcHYvn37pk2bJk+efMwxx5xyyinSFUuQpIV+sHWKkWyYfiJDqkAevAKx+Hz++eeXX365dm4oR0uTFp9AaUayYfqJDFShHdrGjRuff/759u3bn3baadTzXkS9OiAniUc1RrJh+okMtKHVZvr06WvXrj3vvPOaNWvGaqPPsouKijCgxPsORP8cI8mIWj/l6VX/1wAoLSnPzMguKtzxwvMvtWzZsm/fvlRqn4au2NShHAytP94ZDYBUywFbfyIjJyeHrdq8efNWrFjxwx/+8MADD0Qn1PjNRipg+okMfTbw0ksvbd++vXfv3vpbs5R+s5EKmH4io7y8/Ouvv160aFG7du3OPvvs/Px89my2/qQWpp/I4MVm9uzZGzZsQDwsRHl5efYhW8ph+okMlpoJEyZg9OzZk7LE+z5E8BqN1MCeVmQsWLBgyZIl7du3P/7445GN/jWHLUGpheknMl555ZVYLHbBBRfor2CXVvyrQb/ZSAVMP3WOJEEJKASpZGZmfvXVV9OnT2/SpMmll15a+WM3W39SC9NPnSNJ6A9D9ZfZePOZNGnSli1b9t9//5YtW1JJK31owvZOMlID008icB8LeH/bDQlpk/bFF1/s2LHjwAMPZPOmnRvKocT2zzFSAdNPIkAY7NlkAPrp1KlTbm5u69atWYuokbpA/Y1UwfSTCBBG8PE06wyLzEEHHYR+GjdujJb08kMltmRmpAqmnzoH8SAMdm6U2JIQ9RwGqA/oRchIFUw/dQ6CQR4sLJSghQiDJr35BB8eqMadY6QIpp86h9WGlxxt2yhZiCQhLTvoSisPPSmzvW9mNFKFCPRDlrh52ENpREoFBiWolUNtdVIa1IJIAgnJUzXJU9k4K3TYcAgiUJkgRElOBPoJXpR3zx7ZQJKpA2nnV6Us+IJyVMrAL0GrIkCl6qtMpvoNMdE+lgj4VRVfDpH8RKAf5RABQhvB1h+ClKIyCCh4J6Uw+IKzuONmCA9q8BGDSrmMARg6bIDgOBEgLJQ8dEUj+YkgO5VAlAgpKytLwVIy0cohK48q1U1npS744iaGSlCD7/6Blzd4CuqssxoOaEZTqn9c8Ymlf5Dc7PpoEwDB0rWxkQerEKmjlMLYsWOHNCM5Ba/XqQuO4JEnEH8hku8yKOU7YNNHZzUccJ9SwQnm05R57kuWLuIpJhICpCxxkfI+L8jOzr7yyisLCgqef/55mgif+zZxb6UiqySn1EXCcE55mpHjc+bM+f29w84777ybb765qKgoLeY8VQfwz2wwKCZvvfXWg3/406233nrWWWdRkxJf5hzB758qP4gXZVmp/yce/fv3z8/PnzRpEhMPmaTfskY5Lo71AryWPCgB/dw08OaLL774zjvvpFI/c0QoAPf9cxoG+Ks33ilTpowYPpKAMK2QBqnx+1mJRwrR5bFzc3NZtckhIoiRl5dHSTLp5pyW6gv4Ak4onnckDaUcxH0mC4ycnByvbwMCx0kD/d4RSzGHSgC/OclxWZxYCBOlAqS8wVYJqAi7cgfvpNRGrgWOU2IHRtABQ743KII4YGh+wVZYkp8G92mPYdQiph/DCI/pxzDCY/oxjPCYfgwjPKYfwwiP6ccwwmP6SSyp9vs2xp6xp2gY4TH9GEZ4TD+GER7Tj2GEx/RjGOEx/RhGeEw/hhEe049hhMf0YxjhMf0YRnhMP4YRHtOPYYTH9GMY4TH9GEZ4TD+GEZ4I9KMv+FKZnpFWXLI9lu4MfQ+Y36GMA/cdi3G+D63c+y810JfsyWX3nbTef/qCYmpopZRBTQP8/rddvuqNUFCTKnGIQD+lwZdfezRp0oTDyl8bjxEkE03eSSkMXuAUhkrhPK84xNC3RuJ1lvdbwg0KPWvgWRMEQkFNqvwOXwS/v0CKEKDt27dneF98XFBQwCG28gwbMIKvt/VP2wluO4I7D4cC7R/EAZfpQ+rgtV/VYMBxHj2lvso4qFFrkuMvAomkuLjYXdgTSV5engxqmHIwNBNjEE3gEDulIRsC/CoPDiUYbAWEUk0NCiUAD51QBLJJlecewf4NkFBmZiZLEGECrUVs4SipVx8MagiuDusNijsGrgG5okrNwfXP3/8JCYDXPHqFgjKIRvITwdMiUl4Klesr9/Xd+19++eXatWtPPfXUvn37Dhw48PHHH588eTJhpYN/WsriplMP/7iihrzBuyB1sFMlaWqXYM3Rs+YQiIlakxz36xGJB82QPYRMPw+8efNmym3btm3cuHH+/PnTpk176KGHBg0adNWVV6eVR3OHtYhbYT1kUypRlCJsWrRvwSYglO6cXSh1P5Tk2/UOzZL6AEkxUaXXmOxE8/tzyCaIFFqiXLRo0aefrGIhYi/3r3/9a/ny5fn5+XQYMmRIjzPP8M5LeZCHi7j3Kx1z5swZfv8D55577k033YTL6RkuLNJVFWibnQq/xxYCvCYmMGPGjD8++NBvfvObHj16UK/fUEtyYpu3fOubiYJIUZJJZIwMhS895t6IyC3sNWvW9O/ff8OGDU2bNn1/wXxqiDJKo4M0luX95JY3XgRwP6wk2dnZzJrY3DNe7Pkr3egg1zgRR95+++2bb775kksuueeeewoLC7WVRSFVO1WhH8VBMBpDKYYJgCv6ljcDcifO5VqFHfvv7x1GQC688ELnaZr7YcKao5hzz4ChGtyhVIeaENtWuMU3E4VuHU/IAB3yJNyOrqScjGRpwk+2NMxGv/zlL7EfGDm8X79+nEIleUZn+tCz1p/fXqLbo1QSczOImZspL4v7PNQZAy/oCbNnz2blueKKKwYPHsyh/0TTXWQ41Fnf4+knI9NFgG7+5bwJhRpOUa+6hgsB1xW1dV2GIj4YL7300tDf/f53v/vdxRdf7C5US/phcJItuAolgyuA6lATYoVFW30zUShdSAK8YiVp1KiR3oL8LPEykg4sPp07d8bbZ5999rTTTmP2xcZnnU4p+SUeLs2dkLtaN/Bi6dKl33zzTbz1h7uVQU+5gL1ixYqHHvrzj3/84379LsYRKml1fw9jl11c5TG9/Rsd6Hn44Yfvt99+mkSoUXsdwf1zS0K+yK7F62q0V1555XdD7mXHjn7cU/b+ikbN0d1y57p5Sg6JIU9QHWpCBOsPoeHWtROTb6ovKS6jhqREUdu2bSsoKDjhhBMI6xtvvNGxY0eiyYl0rut0+Z+Q7mzbuBP9gdVnn33GI1+4cKH+wtHu8MCcNrTCeMpn7sBB5kSMRo1yteRCWbn/ByD+mVBJP8zHWnC47rHHHvvAAw/sv//+7qy6X4eDZ8S9Cezaui4uEE+MV199NVh/3BVr6X2P4PPIuApjVr5neVFDItAPzigJ9JELhhIoKzOnqKiIFMFhDv/4xz8++uijdEA/nTp1InuoBDrTh1i4EEeB7pmblI0Sxo4dyxLE/lMddoduWi15Ztr7QUmJe5ZMhdhyp4pPEXbWD6fTyqVPP/109n7Ij3pOUYe6wymmYuXBF9V4LbUAQzEm5aRJk9APk9FFF13kampp/QluVVcRXvxr4fe9o1l/cEBLUF5enlRE/SMPP9ahQ4etW7euXr36+eef37x5M01HHXXUtGnTXIrE/PdvOvMUMTRa4lGKcxtBrnMzzoizf6NJKa5TZFDGYm5SLClxf0Ysd1AID5XIYPtUGlMrMK3EgSgROs2sGq3uCEKNI85NrwZq67qMqYnghRdeQD9Dhw6tXf3oMbkBKz7pAdWrQ02IZv3BH5aa3Nxc0gWv8OTKK6+cO2ceTpWWFgcPif3JP//5z8aNG7vD9HK2dkz8wLnBCpB4gifBDSiNuBlWoeysXL/HzuCOOtMTT4PHxvrj5Y17nEC3zKydFx+opJ/SMvehP1dk3iEmlGhJq5nfo27QLVFyIa6OrbutxesyFI5MnDjx/mEjWH8uvPBClyS19PmB4IYVPS6ETeRrJX+i+fxAodeDwSU8ueqqq96ZNQcbqKQDrfTs1q3buHHj8JZ3A1XiP/nKLo5wuOGiQMrBoCSJ9c5WvKPq54EX3ColPSk1ZWDLQUr8ooNTQoYvTv9MqKQfWrku/YmG3OcwAUHgijK4T24PZ1n9mC92us+awbAMPnPmzD/9cdQtt9xy5plnclhb7z8Q3KoCztLdvHlzSlXWhAjWH5zRI8EZ0giD1CEVHn/88bZt2p144om0rlixgpeKDz74gFYWdNSlvCkpdS+aIC3JNuoU4iy1a9aYPHnyqFGj0E+8/Wp1YWQ9TbYVzAs5HrX4cHX/Wna4f7KI+ffWW289/4Lefo8aEIF+CBZhwg1sfRgQLClunih3//aDRwV9+vRZtGjRqaeeyusQEy2vQ8zBRMGfret432IIyUbRpnz33XcnTJiwYcOG9FgtfP4rGJZL8EyBfOD5Mrf6bTVG2cKAvC+QY9itWrW6+uqrTz6li9+jBkSgHxzAEyYbogbES8oRZRWbINy+4YYbpkyZ0qtXL5YmTUgZmW6zRyyYohhHPY06hWek4Cu5eUZ6AYu3X60ulfXJk8WWQQJ47TWF7CLf3HzsbXeZnf2Pecu8P3WsGRFM4e7Wvb/8whKEwaoiA2h1i4z3wPSQeGatW7emhrBSSSzozAh002hGXcMjIPKa6bB5TEpBUrxWkHIkUT1owPCbawy3TS5hMCY3X1BQwIVIJOdbjYlAP7hB9IkRD4MngYEYcJJ6gsiLODV0o+arr76iA65Sj+d0YNmhszoYiUHPiKegFARmcaeoDPeRRjX+i4Ou4qW6e7kXXHHX02vwX1qsLDPLfSBBmZObRU1tfbgXgX6IDiJxy40HhzwPSQKb50Ql0mLnNnPmTGzWHzSjT0v0FKkM4m7UNUzefkJXvKXwFDCU8TWn8uAqdV2/ucYwvtCY3Dzo9bvmRPD+gyfECA1obWFJKSwsxB98o3X1qi/ef//9MWPGLF++nG5du3b9xz/+gcD0FJk8vJi4RZkRNKBRp/AU9LxIbqj1sPM09aqjxFCNjFqEwTUs19IVKf22GhCZfjD0VObMmfOLX/yCQ//ZuJ22+4AOdSGehx56qGXLltToLFZerUXbtm2rrSnE2DNEXvGH4BBqJf+AcZgNKYFHDLqELldzGAe16GWBkkNgfL+5ZkSwC1KAkAoGgfvwww8JHPXUYGhioP6ss84aP348mzeavOflBxRD70tuLKPu0fOSAcQfW4+sSlx6VmiMQ52yh/5BKwadMSh1xSohQ9Sq8bF1llATNRqEkTEo6Yx41KQTa4UI1h+Qz2iAnRuLyYMPPsgbEU7i4fai4hdeeOHrr79mtujduzfrD92Qlk7R3yINBpFhJBU8oOB5qSYwagVGBq6iC1GDQY2aKLmcruh13EldtU40+ze0gVrYg+Xm5nKotYgmypzsvC1bttx1110TJ07ksG/fviNHjmSrRjfCtKPY/c03TVdGcsKTYomQwZMCnmOwaNQcpYo0o8yBYHAMdVCpGhl1QTTrD27jPwsL7zn4SYhzvH+IhqvpMbcVxujXr9+CBQuonDVr1hFHHMFZ9JR+qNShN5iRXPD4tAkHHjE2zwskqtqCDGF8DNIgXiaovk71U2sbwb2HUKIBLb7EFydZXhAS4cDV/Px8DqlkCaJEVytXrqQnTUB/Suo53R/OSDKkEz0jnqle2bX+1BZOmhWvTIxMyeXAu/73qLN/UDdEkIX6qBrBYBNcJLHD+zsH8r958+b60+KWLVviPN2CEFCpR4Jd13ExQqOHywPS5Mjcp0dWi3hicXtCyVLT6y5XoUb4x3VDBPrBT7xCRcQXPaAWliO5Sji0ENH09ttvY9DUoUOHQF3qJsMbzEg6eLI8Rx4ZNo+JR6lX1lhaRvX+i4OXAj4oRwnDFSlB9wD0DMq6I7LP34iv9m8sQatXr545c+aRRx5ZVFTUfJ+W69ev1z9eIDTdu3cfP348/RU4/ZvEYBUykhAeE9nMtPjZZ58tX77c/ctC/eX6ON8PsSeq+idAkoRSCINMYPwmTZr06NGDGkGr17fOiUY/8pkQZ2W676M65JBDFBQUJf/Z0dGhXbt2r7zyStt9W2Nrj8dj4I2IU6Cup5Z4fC9mD26JG2PS5ea95iqWdLrRqs0GNjUcYlDD9EFZuTXus/e+HU4dgCtyrkZLKrgl3CkoKBg+fPjrr7+uJ+XuOM73e9GZaVTzIZGk5BRKTnJVu8FogKGRCQKh2G+//Ybd//vOnTtLqwop9fThyjqxLojm82vChHjcP0Iucsl3/PHHb9myRXF0cfb2bxLMb3/72xsH3kANNtDHH8WLo28lFm6D0k2o3g3ogWH497ObfuQvBiW2XOAB0x9bzlIv9uBUeob/z6U4F0MnUkYVh3joxnB2+vTp8+fP37rV/QNnDuOtP3InK8v/BynffvvtvHnzu3Y9rVWrFuqwCwqgQsq5XI6yVatW/S/rt++++xJDtTKmWtWzjohAP4SJnJOhv62Dz+zfOnXqRGi+/vprIt6mTZtBgwZ9+umnbdu2nf+veUoRuqmz7AjzBm2zYeAJcT94QSkx+M1QSUU00YFWeiqxeKjyAqihVA3PmxJbTbviff8ofdy67c2sWvSCoZIEhSJ4UjjoO1V5Zqm0MUNXgcvp6ZnTpk274447WLvOPbeXKndBAcRQAmAzPruSklL3pWIcKqTcg/TjzqkzItAP7slnR5n//RvkFt7icxCUTz75pFevXtRPe+P14447DoNWhYbz6EbpjRcB3CoS4h64z40bN77//vubN2/WvfnstgpVzqogtwSDUEOrVOHX7o6Xc3TIy8vr2rVr69atdaIillTIHaKkKQZnndQrf79XJf3oT/yA/iUl7uvK7rzzzlGjRp155v/xe+wGnfE6CCMl6N9WUqkaDHWgs3dSnRDN+4+UQArmZLvfz8JDzeJ4Sz2t9KGyd+/eK1asuG7AtbfffruyRIGjlAi9wRKN7kFwz0899dQTTzzB/tNvroynIpySNuiPTUoxXxR5XyEkg0FoZVUhgdTfO3lXSsv8d7/c3Nxbbrnl0ksvRUicxel+j+SA++eWlMqU3LMWzHh+4RE9mUk9/bh/tzJkyND77rvvvPN+WllmAXruCr7GxKCSa1HJIBi6B0pqvJPqigj0ozSidIHwMgyD+OJwfn4+4VYTgRgxYsTo0aN/fFaPp59+mlOoUb3EptESD3dC3uvfXHCIwmfMmKFd/q543nGrPFF35M0OuLBu3bqpU6cec8wxJ598MpXU6GFT4tpO61gl9HfPaW3UqFGPHj2OPfZYTvTbkhKeI45rjojnlKBnSbHbkjAjTJ48efDgu0aN+tOZP467/lROIQgSg0pa1URJJddVZR0RzecHcs85XOY+P2FCJTMw3L+qr/ijNw5vvPFGdsM/7X3OY489RgfSixOVaoQG2x8x4SgtuAdsbljJEfc5eVsJOuMRswPnvvvuuzfddNOAAQOuvfZaxqFGjx8YzT9rN2LObzdW4LtugBqvPVngfjRf6CkTHA4xdn5e38cqPd2tGHriqOjtt98ePHjwsGHDzjm3p99jZxiKQHGKHNe5qicgauVQUdI9uNPqhmhCH3iI88EeRpO6ckKBYDbCaNWqFTV00ANQhsmOCj1s7hC0cnI/lFWiU3CZs4JTcBxo1XsUBp7iGt28k6qAE+lJH07H4HQGpF7jJw9EhrvCEW4SpzTxcfN+827Qh56chTvAIfs9DL85DnRTQAJb43AtXZd67oEoed3rCm9OSyy4h1d4KCe17yctdEjgiDjd6LNgwQKMAw44gBqadCJlkLtRoVsN7MCdKqEP3ume1VOaYXNfVl5CWZ5W6v45vndYXLLdfYt8Vf/pikGsSBRGc3eQZCh95Sk3qfuk0m+uCjqoPzbesR8hK9S0O8SBzgyLjaGROTd4IlRiAzHf83VrTmzpso90sYQh91htiFFuTqNgsuFuCAo+EwveEP7whz8sW7YM+/899dcOHTrQTdO2Sj0bb7xkR3/uobmQ28ZYsmTJbbfddkm/i9i/kS60Us+TBpzC9s6r33y/HKEIeU2ZHnN/b2v48OH33nvvKaee5PdIYmJbtm70zURBlJAKyYRs9GfSaAZVSDnz5s1bvnz56NGjCwoK6HPZZZeN/MMI6tWfMog1g2jAJMdNU6wb6e4DKPH+++/z/vPL667hFQhfkI1KOlPSQSfWayr76M8aOF5WmjZ9+nTEM3To0F7nnO23JzERfH4gJZAovPY8+4/nWYieeOKJ9evXH3HEEWvWrNmwYQM1hBJF3XjjjQMHDnTbm4pPrjhdgaYP42jAJAdHWGQ0U7D4UM6dOxflXDfg2uuvv57UUSXgF0hI9Z2d1h95rfl0ypQpd9999/333x/v84Okwr1sJZhgA7Zw4cLHH3+cmWblypVk2OLFi7/55pvmzZs3adLkpJNOevHFF2+55RZphshSYpNtSjhG8IdLerSuuk/P0pzX8oIgMAVQYss1SjpzqLPqO7jp/6fJNK08ncVHiUEwUiUObt1MMMEUS8lhly5devTo0aJFi+7duz/11FOzZ89GSBMnTjz66KMRFVKhG2ElC5VnnI5BkzdYCiCp44h84f7lDoZ8oVRP1chuOOjJ6ilzSJQknpT4yX5uNdGQ+sy7JAqBwz722GMnTJjw73//e/z48T179mT9oX7Hjh3KNiC4wIlahainxNZoyY9umOQA9/0nGc4F6iUhHFQfkLPeSQ0IXMZxRQA4JC+Jld+c5HhTXkJBPMFfWiFShIxKDLVSTw3yUBNxJKAKq9YcbDJPZ6UKShHJo8oa/AI1NTR44t7c4h40AaGGUJAAak1yIvgImKs6ebA6l/qfxfmZFPNfEtx7Qrn7ManSsmL9gzkCSolm6I+KpC5vsFSDgFfE3LlcISf8ki2joRG4D4SFw1R5vg3xaRlGbWH6MYzwmH4MIzymH8MIj+nHMMJj+jGM8Jh+DCM8kelHn/QLv6r+go/4m17xh13UYAOG+yMP708MqacmVf9cqwYELrtUqAiUapKfCG6UAFEqUsQOVNNwqOw4cagsJA7Vp0GhZBCKDPhtyU0E+lGKBImSKpGqXfxkqfQXeXQYhKXhIJe9GHxvpMoSFNldVg4WqLIhIGflNQSyAXUwUigaka0/QN4wzXCYQvvdEFT2V4bLDo9g56ZDtTZY3ETiYfu3/wExoiz1vv5CperrMZV9VIpU/hvHlVsbGoHvzCaVUWWSE+Vd6t/5AMlUj2ffXbQh5RQXF2/3fiZMjjdk/eyC4qPJJfmJQD9BriiN0E+qBCsc+Atuf1YhFfxl7gj0A+oDOqVBwVKjyCgfCEthYWFBQUGVX96bbESgHz9j0krzGuU0bty4WbNmKfzvefYCJQdloJacnJxGjRrts88+geOqT5VNS+2iWYN8QDAZGRnZ2dk5OVnER61JTkN8YEZSEay6mkTAe/1Jjcw0/RhJAbJRKfGA6pMc049hhMf0YyQX3scoDv84uTH9GEmEZJMq4gHTj5FEBG9BOkx+TD9GcoF4hH+c3ESgn7KKv7cPWqlT5cOWcMhTwJa//nGluVYxCTo0KHCZBCAOge8YgZ3kRPD9o0RK34SoqJE6pf/r95VSHRwEDLlM3FUv2VBZOSBqajjgu4KjIGAQn1SJg3tgCYbokDfFHooUZab3Jfz1EqWFbCkH9zGo16Egh0q83+hXzwYF7msaDb4TnEM1JTvLln/MU0wkXJRIYXz88cd33XlPnz59fvWrX7mfs852+VT/wFn0wwTh8qPYpcWyZcsGDx580cV9rr32WrVqIQJs/7QGQyAV7Iz0rFmzZv3e47TTT1GHZCaWX7DJNxMF8dLUO3/+/JsG3ox+brvttuzs7JJS9yOn9Q8kwUpLCZkZ7qfB5s6de/311//6xuvRD9Gg3u/qdabGP2gYSDmEBcfLStNmzJgxZMiQoUOHpsbvZyWenJycylsXanSo1noJiw8+4qx2rRgkDXsVeU1TUNbvOFQJjhMNDBIDCA6RUU0K4FI4sZBA2rQQI2YcajDUVF9BFUoIhJSVlaX5QlJR9ugQ/BMaEqjFrTweQSYQKBlJTgSfH+wiWlWiKBn1D1xDGBg4i61DguDpxUHeUEkrtk5pUBAK/Y6lPj5RHFIlFFG8rbJli7lfiqXkSHKqnE/1DLlWWR7YaMZr9Ou1ImHT6lU3IHDZbWXL0zPSs7C9UPifYic/9TZrjZQnih93qy6mH8MIj+nHMMJj+jGM8Jh+DCM8ph/DCI/pxzDCY/oxjPCYfgwjPKYfwwiP6ccwwmP6MYzwmH4MIzymH8MIj+nHSFbs93+qhrgE/zU0GqbXe8NOkUmZENn6YxjhMf0klvL0lPhnYcZeYs/SMMJj+kkUtvLUR+yJGkZ4TD91T7yVp6GtSPXRX9OPYYQnAv0UFxdnZWVhlHvEKr5sX631D7zL8H6iI73iu60xOJw3b97YsWOZkmNpGaUl5ZTq7J3UgCgpKXHfNkoKpLmvOFYmYKg1yYng+3tzcnK2b98u2ZBYhI+yHueNvj8RB9EMvuP4mjVrtm7dOnv27KFDh44cOZKmvLw84kBPdW5Q8PTJB33zqLJCc42yJcmJ4Pt73VUrvi4dW0Gsn3nj7fiBnMjOzsb3bdu2LVy48M477wy+Uf71119HOUVFRbm5uczB9e8NYVd2ewsiLOxHnPsVZGZmqz4F2Fa4RW4kDJKJlGLKWbx48fW/+nXnzp3PPvtsohZLT40luxp4iYI8SA78JUvw/YEHHli7di01O3bsoAbHhw0bhpwQGH0o6+1f8Kksm0o+arWhFYN1+IMPPnj55UkPPjiyZ8+eyR+KWGHRVt9MFISJLKFcvXr1r28YuGrVKiqJIJmkDqlK5YddKVfwi6UGQzsT0E+YyGUOGzduzL4OmTGdUVla5n6Wrwp2nrZTm0qxktd4R3ywCwsLmzdv+cgjfznttNNSQD+Ll3zom4kC8ZBAGEzA/5q/YN26dRj6vQp1SFXi6AfIDEqyBJG89tpr69evD2oOO+wwJlrqOSR7nK78HzfZjXqqH3BzR5rbz2utbtu2Xffu3VxD8utna/53vpkoNNEiGDfXup+7dLJR6qhDqqKHvVuW4ybzBUsQSw1zx4IFC6666iqmDJratGkzfvz4gw46SAsyNQSBULjTdk+deqofLTv6ZT4CRWIQMxZmF4fk10/i339AMw2RKiku4x2AZNIOJ7WJox/SQh8VYGvZ+eSTT957773WrVuz8hCKYO7AVjK50xqMfuR+WakzFCimEuyUeB+ORj+GUT+oR1OaYSQc049hhMf0YxjhMf0YRnhMP4YRHtOPYYTH9GMY4TH9GEZ4TD+GER7Tj2GEx/RjGOEx/RhGeEw/hhEe049hhMf0YxjhMf0YRnhMP4YRHtOPYYTH9GMY4TH9GEZ4TD+GER7Tj2GEx/RjGOEx/RhGeEw/hhGeWMG2zb5pGEY1ieD3Swyj3hDLL9jkm4ZhVJNY0fZ83zQMo5rY+mMY4YktXfaRbxqGUU1im7d865uGYVQT+/0swwiPfX5tGOGx9ccwwmN/f8cwwmP6MYzwmH4MIzz2+YFhhCUt7f8DsSMWcvIlQFQAAAAASUVORK5CYII=;" vertex="1" parent="1">
                    <mxGeometry width="277" height="277" as="geometry"/>
                </mxCell>
                <mxCell id="3" value="" style="endArrow=classic;html=1;" edge="1" parent="1">
                    <mxGeometry width="50" height="50" relative="1" as="geometry">
                        <mxPoint x="90" y="100" as="sourcePoint"/>
                        <mxPoint x="90" y="210" as="targetPoint"/>
                        <Array as="points">
                            <mxPoint x="100" y="150"/>
                        </Array>
                    </mxGeometry>
                </mxCell>
                <mxCell id="4" value="" style="endArrow=none;html=1;startArrow=classic;startFill=1;endFill=0;" edge="1" parent="1">
                    <mxGeometry width="50" height="50" relative="1" as="geometry">
                        <mxPoint x="70" y="100" as="sourcePoint"/>
                        <mxPoint x="70" y="210" as="targetPoint"/>
                        <Array as="points">
                            <mxPoint x="60" y="150"/>
                        </Array>
                    </mxGeometry>
                </mxCell>
                <mxCell id="5" value="&lt;font face=&quot;Times New Roman&quot;&gt;&lt;i&gt;I&lt;/i&gt;(&lt;i&gt;t&lt;/i&gt;)&lt;/font&gt;" style="text;html=1;strokeColor=none;fillColor=none;align=center;verticalAlign=middle;whiteSpace=wrap;rounded=0;" vertex="1" parent="1">
                    <mxGeometry x="50" y="130" width="60" height="30" as="geometry"/>
                </mxCell>
                <mxCell id="6" value="" style="endArrow=classic;html=1;fontFamily=Times New Roman;" edge="1" parent="1">
                    <mxGeometry width="50" height="50" relative="1" as="geometry">
                        <mxPoint x="160" y="200" as="sourcePoint"/>
                        <mxPoint x="160" y="120" as="targetPoint"/>
                    </mxGeometry>
                </mxCell>
                <mxCell id="7" value="&lt;font face=&quot;Times New Roman&quot;&gt;&lt;i&gt;V&lt;sub&gt;c&lt;/sub&gt;&lt;/i&gt;(&lt;i&gt;t&lt;/i&gt;)&lt;/font&gt;" style="text;html=1;strokeColor=none;fillColor=none;align=center;verticalAlign=middle;whiteSpace=wrap;rounded=0;" vertex="1" parent="1">
                    <mxGeometry x="130" y="90" width="60" height="30" as="geometry"/>
                </mxCell>
                <mxCell id="8" value="&lt;font face=&quot;Times New Roman&quot;&gt;&lt;i&gt;V&lt;sub&gt;L&lt;/sub&gt;&lt;/i&gt;(&lt;i&gt;t&lt;/i&gt;)&lt;/font&gt;" style="text;html=1;strokeColor=none;fillColor=none;align=center;verticalAlign=middle;whiteSpace=wrap;rounded=0;" vertex="1" parent="1">
                    <mxGeometry y="180" width="60" height="30" as="geometry"/>
                </mxCell>
                <mxCell id="9" value="" style="endArrow=classic;html=1;fontFamily=Times New Roman;" edge="1" parent="1">
                    <mxGeometry width="50" height="50" relative="1" as="geometry">
                        <mxPoint x="29.70999999999998" y="98.5" as="sourcePoint"/>
                        <mxPoint x="29.70999999999998" y="178.5" as="targetPoint"/>
                    </mxGeometry>
                </mxCell>
            </root>
        </mxGraphModel>
    </diagram>
</mxfile>